<?xml version="1.0" encoding="UTF-8" standalone="no"?>
<!-- Created with Inkscape (http://www.inkscape.org/) -->

<svg
   xmlns:dc="http://purl.org/dc/elements/1.1/"
   xmlns:cc="http://creativecommons.org/ns#"
   xmlns:rdf="http://www.w3.org/1999/02/22-rdf-syntax-ns#"
   xmlns:svg="http://www.w3.org/2000/svg"
   xmlns="http://www.w3.org/2000/svg"
   xmlns:sodipodi="http://sodipodi.sourceforge.net/DTD/sodipodi-0.dtd"
   xmlns:inkscape="http://www.inkscape.org/namespaces/inkscape"
   width="600mm"
   height="220mm"
   viewBox="0 0 600 220"
   version="1.1"
   id="svg8"
   inkscape:version="0.92.2 (5c3e80d, 2017-08-06)"
   sodipodi:docname="projector_holder_bottom_8mm.svg">
  <defs
     id="defs2">
    <inkscape:path-effect
       effect="bspline"
       id="path-effect941"
       is_visible="true"
       weight="33.333333"
       steps="2"
       helper_size="0"
       apply_no_weight="true"
       apply_with_weight="true"
       only_selected="false" />
    <inkscape:path-effect
       effect="bspline"
       id="path-effect937"
       is_visible="true"
       weight="33.333333"
       steps="2"
       helper_size="0"
       apply_no_weight="true"
       apply_with_weight="true"
       only_selected="false" />
    <inkscape:path-effect
       effect="bspline"
       id="path-effect915"
       is_visible="true"
       weight="33.333333"
       steps="2"
       helper_size="0"
       apply_no_weight="true"
       apply_with_weight="true"
       only_selected="false" />
    <inkscape:path-effect
       effect="bspline"
       id="path-effect911"
       is_visible="true"
       weight="33.333333"
       steps="2"
       helper_size="0"
       apply_no_weight="true"
       apply_with_weight="true"
       only_selected="false" />
    <inkscape:path-effect
       effect="bspline"
       id="path-effect894"
       is_visible="true"
       weight="33.333333"
       steps="2"
       helper_size="0"
       apply_no_weight="true"
       apply_with_weight="true"
       only_selected="false" />
    <inkscape:path-effect
       effect="bspline"
       id="path-effect890"
       is_visible="true"
       weight="33.333333"
       steps="2"
       helper_size="0"
       apply_no_weight="true"
       apply_with_weight="true"
       only_selected="false" />
    <inkscape:path-effect
       effect="bspline"
       id="path-effect886"
       is_visible="true"
       weight="33.333333"
       steps="2"
       helper_size="0"
       apply_no_weight="true"
       apply_with_weight="true"
       only_selected="false" />
    <inkscape:path-effect
       effect="bspline"
       id="path-effect1119"
       is_visible="true"
       weight="33.333333"
       steps="2"
       helper_size="0"
       apply_no_weight="true"
       apply_with_weight="true"
       only_selected="false" />
    <inkscape:path-effect
       effect="bspline"
       id="path-effect1115"
       is_visible="true"
       weight="33.333333"
       steps="2"
       helper_size="0"
       apply_no_weight="true"
       apply_with_weight="true"
       only_selected="false" />
    <inkscape:path-effect
       effect="bspline"
       id="path-effect1111"
       is_visible="true"
       weight="33.333333"
       steps="2"
       helper_size="0"
       apply_no_weight="true"
       apply_with_weight="true"
       only_selected="false" />
    <inkscape:path-effect
       effect="bspline"
       id="path-effect1107"
       is_visible="true"
       weight="33.333333"
       steps="2"
       helper_size="0"
       apply_no_weight="true"
       apply_with_weight="true"
       only_selected="false" />
    <inkscape:path-effect
       effect="bspline"
       id="path-effect1103"
       is_visible="true"
       weight="33.333333"
       steps="2"
       helper_size="0"
       apply_no_weight="true"
       apply_with_weight="true"
       only_selected="false" />
    <inkscape:path-effect
       effect="bspline"
       id="path-effect1099"
       is_visible="true"
       weight="33.333333"
       steps="2"
       helper_size="0"
       apply_no_weight="true"
       apply_with_weight="true"
       only_selected="false" />
    <inkscape:path-effect
       effect="bspline"
       id="path-effect1095"
       is_visible="true"
       weight="33.333333"
       steps="2"
       helper_size="0"
       apply_no_weight="true"
       apply_with_weight="true"
       only_selected="false" />
    <inkscape:path-effect
       effect="bspline"
       id="path-effect1091"
       is_visible="true"
       weight="33.333333"
       steps="2"
       helper_size="0"
       apply_no_weight="true"
       apply_with_weight="true"
       only_selected="false" />
    <inkscape:path-effect
       effect="bspline"
       id="path-effect1087"
       is_visible="true"
       weight="33.333333"
       steps="2"
       helper_size="0"
       apply_no_weight="true"
       apply_with_weight="true"
       only_selected="false" />
    <inkscape:path-effect
       effect="bspline"
       id="path-effect1083"
       is_visible="true"
       weight="33.333333"
       steps="2"
       helper_size="0"
       apply_no_weight="true"
       apply_with_weight="true"
       only_selected="false" />
    <inkscape:path-effect
       effect="bspline"
       id="path-effect1079"
       is_visible="true"
       weight="33.333333"
       steps="2"
       helper_size="0"
       apply_no_weight="true"
       apply_with_weight="true"
       only_selected="false" />
    <inkscape:path-effect
       effect="bspline"
       id="path-effect4942"
       is_visible="true"
       weight="33.333333"
       steps="2"
       helper_size="0"
       apply_no_weight="true"
       apply_with_weight="true"
       only_selected="false" />
    <inkscape:path-effect
       effect="bspline"
       id="path-effect4923"
       is_visible="true"
       weight="33.333333"
       steps="2"
       helper_size="0"
       apply_no_weight="true"
       apply_with_weight="true"
       only_selected="false" />
    <inkscape:path-effect
       effect="bspline"
       id="path-effect4919"
       is_visible="true"
       weight="33.333333"
       steps="2"
       helper_size="0"
       apply_no_weight="true"
       apply_with_weight="true"
       only_selected="false" />
    <inkscape:path-effect
       effect="bspline"
       id="path-effect4879"
       is_visible="true"
       weight="33.333333"
       steps="2"
       helper_size="0"
       apply_no_weight="true"
       apply_with_weight="true"
       only_selected="false" />
    <inkscape:path-effect
       effect="bspline"
       id="path-effect4875"
       is_visible="true"
       weight="33.333333"
       steps="2"
       helper_size="0"
       apply_no_weight="true"
       apply_with_weight="true"
       only_selected="false" />
    <inkscape:path-effect
       effect="bspline"
       id="path-effect4863"
       is_visible="true"
       weight="33.333333"
       steps="2"
       helper_size="0"
       apply_no_weight="true"
       apply_with_weight="true"
       only_selected="false" />
    <inkscape:path-effect
       effect="bspline"
       id="path-effect1070"
       is_visible="true"
       weight="33.333333"
       steps="2"
       helper_size="0"
       apply_no_weight="true"
       apply_with_weight="true"
       only_selected="false" />
    <inkscape:path-effect
       effect="bspline"
       id="path-effect1055"
       is_visible="true"
       weight="33.333333"
       steps="2"
       helper_size="0"
       apply_no_weight="true"
       apply_with_weight="true"
       only_selected="false" />
    <inkscape:perspective
       sodipodi:type="inkscape:persp3d"
       inkscape:vp_x="0 : 150.00001 : 1"
       inkscape:vp_y="0 : 1000 : 0"
       inkscape:vp_z="600 : 150.00001 : 1"
       inkscape:persp3d-origin="300 : 100 : 1"
       id="perspective956" />
    <inkscape:path-effect
       effect="bspline"
       id="path-effect922"
       is_visible="true"
       weight="33.333333"
       steps="2"
       helper_size="0"
       apply_no_weight="true"
       apply_with_weight="true"
       only_selected="false" />
    <inkscape:path-effect
       effect="bspline"
       id="path-effect918"
       is_visible="true"
       weight="33.333333"
       steps="2"
       helper_size="0"
       apply_no_weight="true"
       apply_with_weight="true"
       only_selected="false" />
    <inkscape:path-effect
       effect="bspline"
       id="path-effect914"
       is_visible="true"
       weight="33.333333"
       steps="2"
       helper_size="0"
       apply_no_weight="true"
       apply_with_weight="true"
       only_selected="false" />
    <inkscape:path-effect
       effect="bspline"
       id="path-effect910"
       is_visible="true"
       weight="33.333333"
       steps="2"
       helper_size="0"
       apply_no_weight="true"
       apply_with_weight="true"
       only_selected="false" />
    <inkscape:path-effect
       effect="bspline"
       id="path-effect906"
       is_visible="true"
       weight="33.333333"
       steps="2"
       helper_size="0"
       apply_no_weight="true"
       apply_with_weight="true"
       only_selected="false" />
    <inkscape:path-effect
       effect="bspline"
       id="path-effect902"
       is_visible="true"
       weight="33.333333"
       steps="2"
       helper_size="0"
       apply_no_weight="true"
       apply_with_weight="true"
       only_selected="false" />
    <inkscape:path-effect
       effect="bspline"
       id="path-effect851"
       is_visible="true"
       weight="33.333333"
       steps="2"
       helper_size="0"
       apply_no_weight="true"
       apply_with_weight="true"
       only_selected="false" />
    <inkscape:path-effect
       effect="bspline"
       id="path-effect840"
       is_visible="true"
       weight="33.333333"
       steps="2"
       helper_size="0"
       apply_no_weight="true"
       apply_with_weight="true"
       only_selected="false" />
    <inkscape:path-effect
       effect="bspline"
       id="path-effect836"
       is_visible="true"
       weight="33.333333"
       steps="2"
       helper_size="0"
       apply_no_weight="true"
       apply_with_weight="true"
       only_selected="false" />
    <inkscape:path-effect
       effect="bspline"
       id="path-effect832"
       is_visible="true"
       weight="33.333333"
       steps="2"
       helper_size="0"
       apply_no_weight="true"
       apply_with_weight="true"
       only_selected="false" />
    <inkscape:path-effect
       effect="bspline"
       id="path-effect828"
       is_visible="true"
       weight="33.333333"
       steps="2"
       helper_size="0"
       apply_no_weight="true"
       apply_with_weight="true"
       only_selected="false" />
    <inkscape:path-effect
       effect="bspline"
       id="path-effect824"
       is_visible="true"
       weight="33.333333"
       steps="2"
       helper_size="0"
       apply_no_weight="true"
       apply_with_weight="true"
       only_selected="false" />
    <inkscape:path-effect
       effect="bspline"
       id="path-effect12"
       is_visible="true"
       weight="33.333333"
       steps="2"
       helper_size="0"
       apply_no_weight="true"
       apply_with_weight="true"
       only_selected="false" />
    <inkscape:path-effect
       effect="bspline"
       id="path-effect836-1"
       is_visible="true"
       weight="33.333333"
       steps="2"
       helper_size="0"
       apply_no_weight="true"
       apply_with_weight="true"
       only_selected="false" />
    <inkscape:path-effect
       effect="bspline"
       id="path-effect824-1"
       is_visible="true"
       weight="33.333333"
       steps="2"
       helper_size="0"
       apply_no_weight="true"
       apply_with_weight="true"
       only_selected="false" />
    <inkscape:path-effect
       effect="bspline"
       id="path-effect4863-8"
       is_visible="true"
       weight="33.333333"
       steps="2"
       helper_size="0"
       apply_no_weight="true"
       apply_with_weight="true"
       only_selected="false" />
    <inkscape:path-effect
       effect="bspline"
       id="path-effect1083-7"
       is_visible="true"
       weight="33.333333"
       steps="2"
       helper_size="0"
       apply_no_weight="true"
       apply_with_weight="true"
       only_selected="false" />
    <inkscape:path-effect
       effect="bspline"
       id="path-effect1095-1"
       is_visible="true"
       weight="33.333333"
       steps="2"
       helper_size="0"
       apply_no_weight="true"
       apply_with_weight="true"
       only_selected="false" />
    <inkscape:path-effect
       effect="bspline"
       id="path-effect1099-7"
       is_visible="true"
       weight="33.333333"
       steps="2"
       helper_size="0"
       apply_no_weight="true"
       apply_with_weight="true"
       only_selected="false" />
    <inkscape:path-effect
       effect="bspline"
       id="path-effect1091-2"
       is_visible="true"
       weight="33.333333"
       steps="2"
       helper_size="0"
       apply_no_weight="true"
       apply_with_weight="true"
       only_selected="false" />
    <inkscape:path-effect
       effect="bspline"
       id="path-effect1087-4"
       is_visible="true"
       weight="33.333333"
       steps="2"
       helper_size="0"
       apply_no_weight="true"
       apply_with_weight="true"
       only_selected="false" />
  </defs>
  <sodipodi:namedview
     id="base"
     pagecolor="#ffffff"
     bordercolor="#666666"
     borderopacity="1.0"
     inkscape:pageopacity="0.0"
     inkscape:pageshadow="2"
     inkscape:zoom="0.5"
     inkscape:cx="500.88457"
     inkscape:cy="611.41424"
     inkscape:document-units="mm"
     inkscape:current-layer="layer1"
     showgrid="false"
     inkscape:window-width="1920"
     inkscape:window-height="986"
     inkscape:window-x="-11"
     inkscape:window-y="-11"
     inkscape:window-maximized="1"
     inkscape:measure-start="1107.13,678.118"
     inkscape:measure-end="1250.14,679.436"
     inkscape:snap-center="true"
     inkscape:snap-object-midpoints="false" />
  <metadata
     id="metadata5">
    <rdf:RDF>
      <cc:Work
         rdf:about="">
        <dc:format>image/svg+xml</dc:format>
        <dc:type
           rdf:resource="http://purl.org/dc/dcmitype/StillImage" />
        <dc:title />
      </cc:Work>
    </rdf:RDF>
  </metadata>
  <g
     inkscape:label="Layer 1"
     inkscape:groupmode="layer"
     id="layer1"
     transform="translate(0,-77)">
    <rect
       style="fill:none;stroke:#ff0000;stroke-width:0.1044436;stroke-miterlimit:4;stroke-dasharray:none;stroke-opacity:1"
       id="rect5102"
       width="119.94056"
       height="6.5043864"
       x="147.842"
       y="-90.883118"
       transform="rotate(90)" />
    <path
       style="opacity:1;fill:none;fill-opacity:1;fill-rule:evenodd;stroke:#ff0000;stroke-width:0.37795275;stroke-linecap:round;stroke-linejoin:miter;stroke-miterlimit:4;stroke-dasharray:none;stroke-dashoffset:0;stroke-opacity:1;paint-order:fill markers stroke"
       d="M 59.5625 190.15625 L 59.5625 798.66016 L 89.798828 798.66016 L 89.798828 768.42383 L 210.74414 768.42383 L 210.74414 798.66016 L 240.98047 798.66016 L 240.98047 768.42383 L 361.92578 768.42383 L 361.92578 798.66016 L 392.16211 798.66016 L 392.16211 190.15625 L 361.92578 190.15625 L 361.92578 220.39258 L 240.98047 220.39258 L 240.98047 190.15625 L 210.74414 190.15625 L 210.74414 220.39258 L 89.798828 220.39258 L 89.798828 190.15625 L 59.5625 190.15625 z "
       transform="matrix(0.26458333,0,0,0.26458333,0,77)"
       id="rect938" />
    <rect
       style="fill:none;stroke:#ff0000;stroke-width:0.1044436;stroke-miterlimit:4;stroke-dasharray:none;stroke-opacity:1"
       id="rect5102-4"
       width="119.94056"
       height="6.5043864"
       x="147.842"
       y="-35.669342"
       transform="rotate(90)" />
    <path
       inkscape:connector-curvature="0"
       style="opacity:1;fill:none;fill-opacity:1;fill-rule:evenodd;stroke:#ff0000;stroke-width:0.10013597;stroke-linecap:round;stroke-linejoin:miter;stroke-miterlimit:4;stroke-dasharray:none;stroke-dashoffset:0;stroke-opacity:1;paint-order:fill markers stroke"
       d="m 257.10491,90.76071 v 160.99986 h 8.0218 v -8.00002 h 72.19626 v 8.00002 h 8.0218 V 90.76071 h -8.0218 v 8.000025 H 265.12671 V 90.76071 Z"
       id="rect938-4"
       sodipodi:nodetypes="ccccccccccccc" />
    <g
       id="g1128">
      <rect
         y="280.93619"
         x="136.24693"
         height="8"
         width="8"
         id="rect974-78"
         style="fill:none;stroke:#ff0000;stroke-width:0.1;stroke-miterlimit:4;stroke-dasharray:none;stroke-opacity:1" />
      <rect
         y="280.82043"
         x="216.25522"
         height="8"
         width="8"
         id="rect974-7-30"
         style="fill:none;stroke:#ff0000;stroke-width:0.1;stroke-miterlimit:4;stroke-dasharray:none;stroke-opacity:1" />
      <g
         transform="rotate(8.2,323.43621,38.465111)"
         id="g907">
        <rect
           style="fill:none;stroke:#ff0000;stroke-width:0.1005052;stroke-miterlimit:4;stroke-dasharray:none;stroke-opacity:1"
           id="rect4844-5-4"
           width="8.0303917"
           height="8.0504522"
           x="323.47104"
           y="34.778244"
           transform="matrix(0.77506885,0.63187679,-0.62431557,0.78117224,0,0)" />
        <rect
           style="fill:none;stroke:#ff0000;stroke-width:0.1005052;stroke-miterlimit:4;stroke-dasharray:none;stroke-opacity:1"
           id="rect4844-5-8-2"
           width="8.0303917"
           height="8.0504513"
           x="243.16722"
           y="34.670055"
           transform="matrix(0.77506885,0.63187679,-0.62431557,0.78117224,0,0)" />
      </g>
      <rect
         style="fill:none;stroke:#ff0000;stroke-width:0.1;stroke-miterlimit:4;stroke-dasharray:none;stroke-opacity:1"
         id="rect974-7-30-6-8"
         width="8"
         height="8"
         x="-184.2552"
         y="-288.82043"
         transform="scale(-1)" />
      <path
         transform="rotate(8.2,295.85601,36.652194)"
         inkscape:original-d="m 380.72075,256.67606 c -34.42554,3.50057 -68.85135,7.0014 -103.27743,10.5025"
         inkscape:path-effect="#path-effect890"
         inkscape:connector-curvature="0"
         id="path888"
         d="m 380.72075,256.67606 c -34.42552,3.5008 -68.85133,7.00164 -103.27743,10.5025"
         style="fill:none;fill-rule:evenodd;stroke:#ff0000;stroke-width:0.06;stroke-linecap:butt;stroke-linejoin:miter;stroke-miterlimit:4;stroke-dasharray:none;stroke-opacity:1" />
      <path
         transform="rotate(8.2,295.85601,36.652194)"
         inkscape:original-d="m 126.78224,144.03308 c 50.22062,41.04823 100.44098,82.09672 150.66108,123.14548"
         inkscape:path-effect="#path-effect894"
         inkscape:connector-curvature="0"
         id="path892"
         d="m 126.78224,144.03308 c 50.22039,41.04852 100.44075,82.09701 150.66108,123.14548"
         style="fill:none;fill-rule:evenodd;stroke:#ff0000;stroke-width:0.06;stroke-linecap:butt;stroke-linejoin:miter;stroke-miterlimit:4;stroke-dasharray:none;stroke-opacity:1" />
      <path
         inkscape:connector-curvature="0"
         id="path958"
         d="m 348.47132,266.53075 v 22.43252"
         style="fill:none;stroke:#ff0000;stroke-width:0.1;stroke-linecap:butt;stroke-linejoin:miter;stroke-miterlimit:4;stroke-dasharray:none;stroke-opacity:1" />
      <path
         inkscape:connector-curvature="0"
         id="path960"
         d="m 113.19519,118.82043 c 0,170.12278 0,153.20758 0,170.12278"
         style="fill:none;stroke:#ff0000;stroke-width:0.1;stroke-linecap:butt;stroke-linejoin:miter;stroke-miterlimit:4;stroke-dasharray:none;stroke-opacity:1" />
      <path
         inkscape:connector-curvature="0"
         id="path964"
         d="m 113.19519,288.94321 235.27613,0.02"
         style="fill:none;stroke:#ff0000;stroke-width:0.1;stroke-linecap:butt;stroke-linejoin:miter;stroke-miterlimit:4;stroke-dasharray:none;stroke-opacity:1" />
    </g>
    <g
       id="g1115"
       transform="rotate(180,181.71045,185.2905)">
      <g
         transform="translate(41.896685,-209.23813)"
         id="g1068">
        <rect
           style="fill:none;stroke:#ff0000;stroke-width:0.1005052;stroke-miterlimit:4;stroke-dasharray:none;stroke-opacity:1"
           id="rect4844-5-4-1"
           width="8.0303917"
           height="8.0504522"
           x="420.07684"
           y="169.84068"
           transform="matrix(0.67702081,0.73596387,-0.72935048,0.68414025,0,0)" />
        <rect
           style="fill:none;stroke:#ff0000;stroke-width:0.1005052;stroke-miterlimit:4;stroke-dasharray:none;stroke-opacity:1"
           id="rect4844-5-8-2-0"
           width="8.0303917"
           height="8.0504513"
           x="339.77304"
           y="169.7325"
           transform="matrix(0.67702081,0.73596387,-0.72935048,0.68414025,0,0)" />
        <path
           style="fill:none;fill-rule:evenodd;stroke:#ff0000;stroke-width:0.06;stroke-linecap:butt;stroke-linejoin:miter;stroke-miterlimit:4;stroke-dasharray:none;stroke-opacity:1"
           d="M 280.27255,240.73491 C 230.03567,199.67297 179.79876,158.611 129.56183,117.54901"
           id="path935"
           inkscape:connector-curvature="0"
           inkscape:path-effect="#path-effect937"
           inkscape:original-d="M 280.27255,240.73491 C 230.03591,199.67268 179.799,158.61071 129.56183,117.54901"
           transform="rotate(-171.8,178.91525,291.88646)" />
        <path
           style="fill:none;fill-rule:evenodd;stroke:#ff0000;stroke-width:0.06;stroke-linecap:butt;stroke-linejoin:miter;stroke-miterlimit:4;stroke-dasharray:none;stroke-opacity:1"
           d="m 125.01317,122.74613 c 1.51646,-1.73265 3.03268,-3.46502 4.54866,-5.19712"
           id="path939"
           inkscape:connector-curvature="0"
           inkscape:path-effect="#path-effect941"
           inkscape:original-d="m 125.01317,122.74613 c 1.51648,-1.73264 3.0327,-3.46501 4.54866,-5.19712"
           transform="rotate(-171.8,178.91525,291.88646)" />
        <path
           style="fill:none;stroke:#ff0000;stroke-width:0.1;stroke-linecap:butt;stroke-linejoin:miter;stroke-miterlimit:4;stroke-dasharray:none;stroke-opacity:1"
           d="m 71.298518,328.05857 -1e-5,170.12277"
           id="path1001"
           inkscape:connector-curvature="0" />
        <path
           style="fill:none;stroke:#ff0000;stroke-width:0.1;stroke-linecap:butt;stroke-linejoin:miter;stroke-miterlimit:4;stroke-dasharray:none;stroke-opacity:1"
           d="M 71.298508,498.18134 H 208.13614"
           id="path1057"
           inkscape:connector-curvature="0" />
        <path
           style="fill:none;stroke:#ff0000;stroke-width:0.1;stroke-linecap:butt;stroke-linejoin:miter;stroke-miterlimit:4;stroke-dasharray:none;stroke-opacity:1"
           d="m 208.14194,466.98554 -0.006,31.1958"
           id="path1059"
           inkscape:connector-curvature="0" />
      </g>
      <rect
         y="280.93622"
         x="136.24693"
         height="8"
         width="8"
         id="rect974-78-1"
         style="fill:none;stroke:#ff0000;stroke-width:0.1;stroke-miterlimit:4;stroke-dasharray:none;stroke-opacity:1" />
      <rect
         y="280.82047"
         x="216.25522"
         height="8"
         width="8"
         id="rect974-7-30-9"
         style="fill:none;stroke:#ff0000;stroke-width:0.1;stroke-miterlimit:4;stroke-dasharray:none;stroke-opacity:1" />
      <rect
         style="fill:none;stroke:#ff0000;stroke-width:0.1;stroke-miterlimit:4;stroke-dasharray:none;stroke-opacity:1"
         id="rect974-7-30-6-8-8"
         width="8"
         height="8"
         x="-184.2552"
         y="-288.82043"
         transform="scale(-1)" />
    </g>
    <rect
       style="opacity:1;fill:none;fill-opacity:1;stroke:#ff0000;stroke-width:0.08156833;stroke-miterlimit:4;stroke-dasharray:none;stroke-opacity:1"
       id="rect890"
       width="33.602081"
       height="24.645279"
       x="271.86621"
       y="219.16676" />
    <rect
       style="opacity:1;fill:none;fill-opacity:1;stroke:#ff0000;stroke-width:0.08156833;stroke-miterlimit:4;stroke-dasharray:none;stroke-opacity:1"
       id="rect890-2"
       width="33.602081"
       height="24.645279"
       x="271.86658"
       y="98.719765" />
    <path
       sodipodi:type="star"
       style="opacity:1;fill:none;fill-opacity:1;stroke:#ff0000;stroke-width:0.06876692;stroke-miterlimit:4;stroke-dasharray:none;stroke-opacity:1"
       id="path909-3"
       sodipodi:sides="64"
       sodipodi:cx="252.94168"
       sodipodi:cy="262.33959"
       sodipodi:r1="8.122612"
       sodipodi:r2="10.763374"
       sodipodi:arg1="0.27214589"
       sodipodi:arg2="0.32123327"
       inkscape:flatsided="true"
       inkscape:rounded="0.2"
       inkscape:randomized="0"
       d="m 260.76535,264.52295 c -0.0428,0.15356 -0.19398,0.60772 -0.25168,0.75634 -0.0577,0.14862 -0.25261,0.58578 -0.3246,0.72803 -0.072,0.14224 -0.30881,0.5582 -0.3944,0.69271 -0.0856,0.1345 -0.36204,0.52524 -0.46039,0.65071 -0.0984,0.12547 -0.41178,0.48723 -0.52196,0.60245 -0.11018,0.11523 -0.45756,0.44453 -0.5785,0.5484 -0.12094,0.10387 -0.49892,0.39753 -0.62946,0.48905 -0.13054,0.0915 -0.53549,0.34671 -0.67437,0.42499 -0.13888,0.0783 -0.56689,0.29256 -0.71278,0.35685 -0.14588,0.0643 -0.59284,0.23559 -0.74432,0.28527 -0.15148,0.0497 -0.61307,0.17634 -0.7687,0.21093 -0.15562,0.0346 -0.62741,0.11541 -0.78567,0.13458 -0.15827,0.0192 -0.6357,0.0534 -0.79508,0.0569 -0.15939,0.004 -0.63787,-0.009 -0.79683,-0.0213 -0.15897,-0.0121 -0.6339,-0.0717 -0.79091,-0.0993 -0.15702,-0.0276 -0.62381,-0.13348 -0.77737,-0.17633 -0.15355,-0.0428 -0.60772,-0.19398 -0.75634,-0.25168 -0.14862,-0.0577 -0.58578,-0.25261 -0.72803,-0.3246 -0.14224,-0.072 -0.5582,-0.30882 -0.69271,-0.3944 -0.1345,-0.0856 -0.52524,-0.36204 -0.65071,-0.46039 -0.12547,-0.0984 -0.48723,-0.41179 -0.60245,-0.52196 -0.11523,-0.11018 -0.44453,-0.45756 -0.5484,-0.5785 -0.10387,-0.12094 -0.39753,-0.49892 -0.48904,-0.62946 -0.0915,-0.13054 -0.34672,-0.53549 -0.425,-0.67437 -0.0783,-0.13888 -0.29256,-0.56689 -0.35685,-0.71278 -0.0643,-0.14588 -0.23559,-0.59284 -0.28527,-0.74432 -0.0497,-0.15149 -0.17634,-0.61308 -0.21093,-0.7687 -0.0346,-0.15563 -0.11541,-0.62741 -0.13458,-0.78567 -0.0192,-0.15827 -0.0533,-0.6357 -0.0569,-0.79508 -0.004,-0.15939 0.009,-0.63787 0.0213,-0.79684 0.0121,-0.15896 0.0717,-0.63389 0.0993,-0.7909 0.0276,-0.15702 0.13348,-0.62381 0.17633,-0.77737 0.0429,-0.15356 0.19398,-0.60772 0.25168,-0.75634 0.0577,-0.14862 0.25261,-0.58578 0.3246,-0.72803 0.072,-0.14224 0.30882,-0.5582 0.3944,-0.69271 0.0856,-0.1345 0.36204,-0.52524 0.46039,-0.65071 0.0984,-0.12547 0.41179,-0.48723 0.52196,-0.60246 0.11018,-0.11522 0.45756,-0.44452 0.5785,-0.54839 0.12094,-0.10387 0.49892,-0.39753 0.62946,-0.48905 0.13055,-0.0915 0.53549,-0.34671 0.67437,-0.42499 0.13888,-0.0783 0.56689,-0.29256 0.71278,-0.35685 0.14589,-0.0643 0.59284,-0.23559 0.74432,-0.28527 0.15149,-0.0497 0.61308,-0.17634 0.7687,-0.21094 0.15563,-0.0346 0.62741,-0.1154 0.78567,-0.13457 0.15827,-0.0192 0.6357,-0.0533 0.79508,-0.0569 0.15939,-0.004 0.63787,0.009 0.79684,0.0213 0.15896,0.0121 0.63389,0.0717 0.7909,0.0993 0.15702,0.0276 0.62381,0.13348 0.77737,0.17633 0.15356,0.0429 0.60772,0.19398 0.75634,0.25168 0.14862,0.0577 0.58579,0.25261 0.72803,0.3246 0.14225,0.072 0.5582,0.30881 0.69271,0.3944 0.1345,0.0856 0.52524,0.36204 0.65071,0.46039 0.12547,0.0984 0.48723,0.41178 0.60246,0.52196 0.11522,0.11018 0.44452,0.45756 0.54839,0.5785 0.10387,0.12094 0.39753,0.49892 0.48905,0.62946 0.0915,0.13054 0.34671,0.53549 0.42499,0.67437 0.0783,0.13888 0.29256,0.56689 0.35685,0.71278 0.0643,0.14588 0.23559,0.59284 0.28527,0.74432 0.0497,0.15149 0.17634,0.61308 0.21094,0.7687 0.0346,0.15562 0.1154,0.62741 0.13457,0.78567 0.0192,0.15827 0.0534,0.6357 0.0569,0.79508 0.004,0.15939 -0.009,0.63787 -0.0213,0.79683 -0.0121,0.15897 -0.0717,0.6339 -0.0993,0.79091 -0.0276,0.15702 -0.13348,0.62381 -0.17633,0.77737 z"
       inkscape:transform-center-x="-1.3068725e-006"
       inkscape:transform-center-y="-5.6563711e-006" />
    <path
       sodipodi:type="star"
       style="opacity:1;fill:none;fill-opacity:1;stroke:#ff0000;stroke-width:0.06876692;stroke-miterlimit:4;stroke-dasharray:none;stroke-opacity:1"
       id="path909-3-0"
       sodipodi:sides="64"
       sodipodi:cx="331.78748"
       sodipodi:cy="264.9854"
       sodipodi:r1="8.122612"
       sodipodi:r2="10.763374"
       sodipodi:arg1="0.27214589"
       sodipodi:arg2="0.32123327"
       inkscape:flatsided="true"
       inkscape:rounded="0.2"
       inkscape:randomized="0"
       d="m 339.61115,267.16876 c -0.0429,0.15356 -0.19399,0.60773 -0.25168,0.75634 -0.0577,0.14862 -0.25262,0.58579 -0.3246,0.72803 -0.072,0.14225 -0.30882,0.55821 -0.3944,0.69271 -0.0856,0.1345 -0.36204,0.52525 -0.4604,0.65071 -0.0983,0.12547 -0.41178,0.48723 -0.52196,0.60246 -0.11018,0.11522 -0.45755,0.44452 -0.57849,0.54839 -0.12095,0.10387 -0.49893,0.39753 -0.62947,0.48905 -0.13054,0.0915 -0.53548,0.34672 -0.67437,0.42499 -0.13888,0.0783 -0.56689,0.29256 -0.71277,0.35685 -0.14589,0.0643 -0.59284,0.23559 -0.74433,0.28527 -0.15148,0.0497 -0.61307,0.17634 -0.76869,0.21094 -0.15563,0.0346 -0.62741,0.1154 -0.78568,0.13457 -0.15826,0.0192 -0.6357,0.0534 -0.79508,0.0569 -0.15938,0.004 -0.63786,-0.009 -0.79683,-0.0213 -0.15896,-0.0121 -0.63389,-0.0717 -0.79091,-0.0993 -0.15701,-0.0276 -0.62381,-0.13348 -0.77736,-0.17634 -0.15356,-0.0428 -0.60773,-0.19398 -0.75634,-0.25168 -0.14862,-0.0577 -0.58579,-0.25261 -0.72803,-0.3246 -0.14225,-0.072 -0.55821,-0.30881 -0.69271,-0.3944 -0.13451,-0.0856 -0.52525,-0.36204 -0.65072,-0.46039 -0.12546,-0.0984 -0.48723,-0.41178 -0.60245,-0.52196 -0.11522,-0.11018 -0.44452,-0.45756 -0.54839,-0.5785 -0.10387,-0.12094 -0.39754,-0.49892 -0.48905,-0.62946 -0.0915,-0.13054 -0.34672,-0.53549 -0.425,-0.67437 -0.0783,-0.13888 -0.29256,-0.56689 -0.35685,-0.71278 -0.0643,-0.14588 -0.23558,-0.59283 -0.28526,-0.74432 -0.0497,-0.15148 -0.17635,-0.61307 -0.21094,-0.7687 -0.0346,-0.15562 -0.1154,-0.6274 -0.13457,-0.78567 -0.0192,-0.15827 -0.0534,-0.6357 -0.0569,-0.79508 -0.004,-0.15938 0.009,-0.63787 0.0213,-0.79683 0.0121,-0.15897 0.0717,-0.63389 0.0993,-0.79091 0.0276,-0.15702 0.13348,-0.62381 0.17634,-0.77737 0.0428,-0.15355 0.19398,-0.60772 0.25167,-0.75634 0.0577,-0.14861 0.25262,-0.58578 0.32461,-0.72803 0.072,-0.14224 0.30881,-0.5582 0.39439,-0.6927 0.0856,-0.13451 0.36204,-0.52525 0.4604,-0.65072 0.0983,-0.12547 0.41178,-0.48723 0.52196,-0.60245 0.11018,-0.11523 0.45755,-0.44453 0.5785,-0.54839 0.12094,-0.10387 0.49892,-0.39754 0.62946,-0.48905 0.13054,-0.0915 0.53549,-0.34672 0.67437,-0.425 0.13888,-0.0783 0.56689,-0.29256 0.71277,-0.35685 0.14589,-0.0643 0.59284,-0.23559 0.74433,-0.28527 0.15148,-0.0497 0.61307,-0.17634 0.7687,-0.21093 0.15562,-0.0346 0.6274,-0.11541 0.78567,-0.13458 0.15826,-0.0192 0.6357,-0.0533 0.79508,-0.0569 0.15938,-0.004 0.63787,0.009 0.79683,0.0213 0.15897,0.0121 0.63389,0.0717 0.79091,0.0993 0.15701,0.0276 0.62381,0.13348 0.77737,0.17633 0.15355,0.0429 0.60772,0.19398 0.75634,0.25168 0.14861,0.0577 0.58578,0.25262 0.72803,0.3246 0.14224,0.072 0.5582,0.30882 0.6927,0.3944 0.13451,0.0856 0.52525,0.36204 0.65072,0.4604 0.12546,0.0983 0.48723,0.41178 0.60245,0.52196 0.11522,0.11017 0.44452,0.45755 0.54839,0.57849 0.10387,0.12094 0.39754,0.49893 0.48905,0.62947 0.0915,0.13054 0.34672,0.53548 0.425,0.67436 0.0783,0.13889 0.29256,0.5669 0.35685,0.71278 0.0643,0.14589 0.23558,0.59284 0.28526,0.74432 0.0497,0.15149 0.17635,0.61308 0.21094,0.7687 0.0346,0.15563 0.1154,0.62741 0.13458,0.78568 0.0192,0.15826 0.0534,0.63569 0.0569,0.79508 0.004,0.15938 -0.009,0.63786 -0.0213,0.79683 -0.0121,0.15896 -0.0717,0.63389 -0.0993,0.79091 -0.0276,0.15701 -0.13348,0.62381 -0.17633,0.77736 z"
       inkscape:transform-center-x="-1.3068725e-006"
       inkscape:transform-center-y="-5.6563711e-006" />
  </g>
</svg>
