<?xml version="1.0" encoding="UTF-8" standalone="no"?>
<!-- Created with Inkscape (http://www.inkscape.org/) -->

<svg
   xmlns:dc="http://purl.org/dc/elements/1.1/"
   xmlns:cc="http://creativecommons.org/ns#"
   xmlns:rdf="http://www.w3.org/1999/02/22-rdf-syntax-ns#"
   xmlns:svg="http://www.w3.org/2000/svg"
   xmlns="http://www.w3.org/2000/svg"
   xmlns:sodipodi="http://sodipodi.sourceforge.net/DTD/sodipodi-0.dtd"
   xmlns:inkscape="http://www.inkscape.org/namespaces/inkscape"
   width="600mm"
   height="300mm"
   viewBox="0 0 600 300"
   version="1.1"
   id="svg8"
   inkscape:version="0.92.2 (5c3e80d, 2017-08-06)"
   sodipodi:docname="projector_plate.svg">
  <defs
     id="defs2" />
  <sodipodi:namedview
     id="base"
     pagecolor="#ffffff"
     bordercolor="#666666"
     borderopacity="1.0"
     inkscape:pageopacity="0.0"
     inkscape:pageshadow="2"
     inkscape:zoom="0.5"
     inkscape:cx="1178.7758"
     inkscape:cy="519.78395"
     inkscape:document-units="mm"
     inkscape:current-layer="layer1"
     showgrid="false"
     inkscape:measure-start="2119,595"
     inkscape:measure-end="1911,595"
     inkscape:window-width="1920"
     inkscape:window-height="986"
     inkscape:window-x="-11"
     inkscape:window-y="-11"
     inkscape:window-maximized="1"
     objecttolerance="5" />
  <metadata
     id="metadata5">
    <rdf:RDF>
      <cc:Work
         rdf:about="">
        <dc:format>image/svg+xml</dc:format>
        <dc:type
           rdf:resource="http://purl.org/dc/dcmitype/StillImage" />
        <dc:title />
      </cc:Work>
    </rdf:RDF>
  </metadata>
  <g
     inkscape:label="Layer 1"
     inkscape:groupmode="layer"
     id="layer1"
     transform="translate(0,3)">
    <g
       id="g936"
       transform="translate(3.1750001,-2.1166667)">
      <path
         id="rect815"
         transform="matrix(0.26458333,0,0,0.26458333,0,-3)"
         d="m 89.429688,19.017578 c -0.09118,0.01654 -0.260268,0.04143 -0.339844,0.05664 -2.129341,0.40694 -8.455956,1.940987 -10.535156,2.554687 -2.079202,0.61369 -8.223392,2.759689 -10.232422,3.574219 -2.009038,0.81454 -7.914453,3.554972 -9.833985,4.5625 -1.91952,1.007543 -7.526359,4.311122 -9.33789,5.501953 -1.811528,1.190831 -7.069778,5.027969 -8.75586,6.390625 -1.686081,1.36266 -6.541537,5.697392 -8.085937,7.21875 -1.5444,1.521363 -5.950041,6.311148 -7.337891,7.976563 -1.38784,1.665411 -5.305518,6.864779 -6.523437,8.658203 -1.21793,1.793427 -4.606309,7.351695 -5.642578,9.255859 -1.036271,1.904168 -3.8623916,7.765149 -4.7070318,9.761719 -0.8446396,1.996569 -3.0836356,8.109942 -3.7285156,10.179687 -0.6448699,2.069745 -2.2739907,8.371167 -2.7128906,10.494137 -0.3884018,1.87872 -1.1905479,6.98056 -1.53515625,9.65821 V 1133.7383 H 113.47852 V 982.76953 h 148.0371 c 0.8639,-4.3045 1.66656,-8.16529 2.27735,-10.78711 3.1142,-13.36777 14.42255,-52.99597 18.83203,-65.99414 4.40948,-12.99817 19.5467,-51.32672 25.20898,-63.83008 5.66231,-12.50339 24.48511,-49.16457 31.34571,-61.05273 6.86052,-11.88817 29.18501,-46.52706 37.17773,-57.68555 7.9928,-11.15845 33.6063,-43.4443 42.6543,-53.76562 9.04804,-10.32129 37.70067,-39.93947 47.7168,-49.32422 10.01612,-9.38476 41.43649,-36.05234 52.32421,-44.41016 10.88773,-8.35782 44.76737,-31.81602 56.42188,-39.0664 11.65455,-7.25039 47.67337,-27.27648 59.98242,-33.34961 12.30909,-6.07314 50.11587,-22.47122 62.96094,-27.3086 12.84506,-4.83738 52.07661,-17.45271 65.33398,-21.00781 13.25738,-3.55502 53.53811,-12.26154 67.08008,-14.5 13.54197,-2.2385 54.48156,-6.95706 68.17774,-7.85742 13.69617,-0.90036 54.90066,-1.58121 68.61914,-1.13477 13.71851,0.44644 54.79169,3.80483 68.40039,5.59375 13.6087,1.78897 54.1537,9.15922 67.5215,12.27344 13.3678,3.11422 52.9979,14.42253 65.9961,18.83203 12.9981,4.40946 51.3265,19.54669 63.8301,25.20899 12.5031,5.66229 49.1645,24.48514 61.0527,31.3457 11.8882,6.86056 46.5272,29.18494 57.6855,37.17773 11.1586,7.9928 43.4424,33.60626 53.7637,42.6543 10.3213,9.048 39.9397,37.70067 49.3242,47.7168 9.3849,10.01609 36.0524,41.43454 44.4102,52.32226 8.3578,10.88776 31.818,44.76932 39.0683,56.42383 7.2503,11.65455 27.2765,47.67337 33.3496,59.98242 6.0731,12.30909 22.4712,50.11588 27.3086,62.96094 4.8373,12.84506 17.4509,52.07661 21.0059,65.33398 1.7693,6.59777 4.8139,19.89101 7.7031,33.24805 h 148.2383 v 150.96877 h 113.3574 V 132.20703 h -0.9414 c 0.051,-1.49303 0.088,-2.88044 0.082,-3.6582 -0.015,-2.16782 -0.3827,-8.66648 -0.6114,-10.82227 -0.2286,-2.15577 -1.2329,-8.586 -1.6718,-10.70898 -0.4389,-2.12299 -2.0681,-8.424401 -2.7129,-10.494142 -0.6449,-2.069749 -2.8839,-8.183119 -3.7286,-10.179688 -0.8446,-1.996573 -3.6707,-7.857547 -4.707,-9.761719 -1.0363,-1.90416 -4.4246,-7.462428 -5.6426,-9.255859 -1.2179,-1.79342 -5.1356,-6.992792 -6.5234,-8.658203 -1.3878,-1.665407 -5.7935,-6.455193 -7.3379,-7.976563 -1.5444,-1.52135 -6.3998,-5.85609 -8.0859,-7.21875 -1.6861,-1.362648 -6.9444,-5.199794 -8.7559,-6.390625 -1.8115,-1.190827 -7.4184,-4.494403 -9.3379,-5.501953 -1.9195,-1.007531 -7.825,-3.747959 -9.834,-4.5625 -2.009,-0.81453 -8.1532,-2.960529 -10.2324,-3.574219 -2.0792,-0.6137 -8.4058,-2.147745 -10.5351,-2.554687 -2.1294,-0.406938 -8.5735,-1.313495 -10.7325,-1.509766 -1.3608,-0.123713 -4.3957,-0.269247 -7.0332,-0.361328 z"
         style="opacity:1;fill:none;fill-opacity:1;stroke:#ff0000;stroke-width:0.24042518;stroke-miterlimit:4;stroke-dasharray:none;stroke-opacity:1"
         inkscape:connector-curvature="0" />
      <path
         inkscape:connector-curvature="0"
         id="rect841"
         d="m 9.4246267,102.17535 v 85.01306 h 6.6507463 v -85.01306 z m 0,94.93799 v 85.01256 h 6.6507463 v -85.01256 z"
         style="opacity:1;fill:none;fill-opacity:1;stroke:#ff0000;stroke-width:0.04925334;stroke-miterlimit:4;stroke-dasharray:none;stroke-opacity:1" />
      <path
         id="rect841-2"
         d="m 484.21663,102.17583 v 85.01306 h 6.65075 v -85.01306 z m 0,94.938 v 85.01255 h 6.65075 v -85.01255 z"
         style="opacity:1;fill:none;fill-opacity:1;stroke:#ff0000;stroke-width:0.04925337;stroke-miterlimit:4;stroke-dasharray:none;stroke-opacity:1"
         inkscape:connector-curvature="0" />
    </g>
  </g>
</svg>
